<?xml version="1.0" standalone="no"?>
<!DOCTYPE svg PUBLIC "-//W3C//DTD SVG 20010904//EN"
 "http://www.w3.org/TR/2001/REC-SVG-20010904/DTD/svg10.dtd">
<svg version="1.0" xmlns="http://www.w3.org/2000/svg"
 width="512.000000pt" height="512.000000pt" viewBox="0 0 512.000000 512.000000"
 preserveAspectRatio="xMidYMid meet">

<g transform="translate(0.000000,512.000000) scale(0.100000,-0.100000)"
fill="#000000" stroke="none">
<path d="M1124 4005 c-132 -29 -256 -93 -359 -188 -109 -99 -185 -224 -228
-375 -22 -76 -22 -82 -22 -882 0 -798 0 -806 22 -882 75 -265 263 -461 528
-550 l70 -23 1392 -3 c1509 -3 1455 -4 1593 51 183 74 322 205 410 388 77 159
75 136 75 1019 0 898 3 862 -88 1043 -43 86 -64 115 -136 187 -120 118 -237
183 -389 215 -96 21 -2775 20 -2868 0z m1461 -1145 c275 -160 503 -294 507
-298 3 -4 -217 -136 -490 -295 -274 -158 -516 -299 -539 -313 l-43 -25 0 631
0 632 33 -20 c17 -11 257 -151 532 -312z"/>
</g>
</svg>
