<?xml version="1.0" standalone="no"?>
<!DOCTYPE svg PUBLIC "-//W3C//DTD SVG 20010904//EN"
 "http://www.w3.org/TR/2001/REC-SVG-20010904/DTD/svg10.dtd">
<svg version="1.0" xmlns="http://www.w3.org/2000/svg"
 width="512.000000pt" height="512.000000pt" viewBox="0 0 512.000000 512.000000"
 preserveAspectRatio="xMidYMid meet">

<g transform="translate(0.000000,512.000000) scale(0.100000,-0.100000)"
fill="#000000" stroke="none">
<path d="M315 4365 c-51 -18 -120 -91 -134 -141 -16 -56 -15 -3273 0 -3329 15
-53 91 -129 144 -144 22 -6 119 -11 218 -11 l177 0 0 1375 c0 908 3 1375 10
1375 5 0 415 -302 911 -671 495 -368 907 -673 914 -675 8 -3 401 283 927 676
l913 682 3 -1381 2 -1381 188 0 c160 0 193 3 227 19 51 23 93 65 116 116 18
38 19 110 19 1675 0 1131 -3 1647 -11 1674 -15 54 -80 121 -136 140 -28 10
-79 16 -127 16 l-81 -1 -1013 -739 c-557 -407 -1017 -740 -1022 -740 -5 0
-361 257 -792 571 -431 315 -887 648 -1014 740 l-232 169 -83 0 c-46 -1 -102
-7 -124 -15z"/>
</g>
</svg>
