<?xml version="1.0" standalone="no"?>
<!DOCTYPE svg PUBLIC "-//W3C//DTD SVG 20010904//EN"
 "http://www.w3.org/TR/2001/REC-SVG-20010904/DTD/svg10.dtd">
<svg version="1.0" xmlns="http://www.w3.org/2000/svg"
 width="392.000000pt" height="129.000000pt" viewBox="0 0 392.000000 129.000000"
 preserveAspectRatio="xMidYMid meet">

<g transform="translate(0.000000,129.000000) scale(0.100000,-0.100000)"
fill="#000000" stroke="none">
<path d="M1 1078 c1 -195 2 -209 14 -165 47 171 192 314 366 361 52 14 45 15
-163 15 l-218 1 1 -212z"/>
<path d="M639 1274 c62 -17 135 -54 183 -94 l33 -28 -45 -46 c-24 -25 -48 -46
-52 -46 -5 0 -27 14 -50 30 -79 57 -202 76 -304 45 -249 -74 -335 -391 -160
-592 113 -129 343 -151 480 -46 51 39 91 101 102 161 l7 32 -162 0 -161 0 0
70 0 70 230 0 229 0 7 -36 c9 -49 -9 -165 -36 -237 -27 -71 -116 -171 -188
-210 -68 -37 -153 -57 -242 -57 -143 0 -258 48 -360 150 -71 71 -112 138 -134
221 -14 50 -15 28 -15 -303 l-1 -358 1338 1 1337 0 -52 20 c-56 22 -131 87
-157 138 l-17 31 43 19 c79 33 81 33 109 -8 36 -52 87 -74 156 -69 92 8 141
63 150 169 l6 61 -47 -33 c-58 -42 -145 -51 -225 -24 -63 20 -151 98 -180 158
-81 167 -12 366 152 443 90 42 214 29 274 -28 l23 -21 0 32 0 32 68 -3 67 -3
3 -280 c3 -312 -6 -411 -42 -484 -31 -60 -91 -113 -154 -134 -44 -15 -11 -16
511 -16 l557 -1 0 345 0 345 -22 -9 c-54 -21 -391 -161 -399 -167 -14 -8 31
-62 67 -79 36 -17 110 -20 147 -6 14 5 41 24 61 41 l36 32 50 -32 c28 -18 50
-36 50 -41 0 -18 -78 -86 -126 -110 -70 -34 -179 -38 -256 -9 -73 27 -141 92
-176 168 -21 46 -26 71 -25 132 1 137 65 244 177 296 68 32 176 33 239 4 56
-26 122 -94 152 -156 l24 -49 1 293 0 292 -1667 -1 c-1477 0 -1662 -2 -1614
-15z m2631 -494 l0 -470 -70 0 -70 0 0 470 0 470 70 0 70 0 0 -470z m-1775
122 c68 -33 127 -93 158 -161 16 -35 21 -66 21 -131 0 -104 -24 -161 -96 -232
-153 -150 -420 -103 -515 90 -38 77 -40 200 -5 277 31 68 85 122 157 156 51
25 72 29 140 29 67 0 90 -5 140 -28z m713 -7 c187 -102 225 -362 75 -512 -67
-67 -123 -88 -233 -88 -80 0 -102 4 -140 24 -108 56 -170 150 -178 268 -6 88
9 147 53 208 69 98 150 136 280 132 77 -2 97 -7 143 -32z"/>
<path d="M1312 797 c-156 -32 -187 -275 -44 -355 72 -40 156 -27 214 35 36 37
48 73 48 139 0 127 -96 206 -218 181z"/>
<path d="M2017 799 c-133 -22 -190 -198 -102 -315 58 -76 183 -86 253 -21 91
84 79 253 -21 312 -40 24 -85 32 -130 24z"/>
<path d="M2735 804 c-5 -1 -22 -5 -37 -8 -39 -9 -88 -54 -109 -101 -46 -100 0
-229 94 -264 183 -69 318 174 179 320 -34 35 -95 61 -127 53z"/>
<path d="M3575 792 c-23 -11 -53 -33 -68 -51 -25 -30 -46 -96 -34 -108 8 -7
271 103 275 115 5 16 -52 51 -94 57 -27 4 -52 0 -79 -13z"/>
</g>
</svg>
