<?xml version="1.0" standalone="no"?>
<!DOCTYPE svg PUBLIC "-//W3C//DTD SVG 20010904//EN"
 "http://www.w3.org/TR/2001/REC-SVG-20010904/DTD/svg10.dtd">
<svg version="1.0" xmlns="http://www.w3.org/2000/svg"
 width="52.000000pt" height="52.000000pt" viewBox="0 0 52.000000 52.000000"
 preserveAspectRatio="xMidYMid meet">

<g transform="translate(0.000000,52.000000) scale(0.100000,-0.100000)"
fill="#000000" stroke="none">
<path d="M32 488 c-16 -16 -16 -80 0 -96 7 -7 28 -12 48 -12 20 0 41 5 48 12
16 16 16 80 0 96 -16 16 -80 16 -96 0z"/>
<path d="M212 488 c-16 -16 -16 -80 0 -96 7 -7 28 -12 48 -12 45 0 60 15 60
60 0 45 -15 60 -60 60 -20 0 -41 -5 -48 -12z"/>
<path d="M392 488 c-7 -7 -12 -28 -12 -48 0 -45 15 -60 60 -60 45 0 60 15 60
60 0 45 -15 60 -60 60 -20 0 -41 -5 -48 -12z"/>
<path d="M32 308 c-16 -16 -16 -80 0 -96 16 -16 80 -16 96 0 16 16 16 80 0 96
-16 16 -80 16 -96 0z"/>
<path d="M212 308 c-16 -16 -16 -80 0 -96 16 -16 80 -16 96 0 16 16 16 80 0
96 -16 16 -80 16 -96 0z"/>
<path d="M392 308 c-7 -7 -12 -28 -12 -48 0 -20 5 -41 12 -48 16 -16 80 -16
96 0 16 16 16 80 0 96 -16 16 -80 16 -96 0z"/>
<path d="M32 128 c-16 -16 -16 -80 0 -96 16 -16 80 -16 96 0 16 16 16 80 0 96
-16 16 -80 16 -96 0z"/>
<path d="M212 128 c-16 -16 -16 -80 0 -96 7 -7 28 -12 48 -12 20 0 41 5 48 12
16 16 16 80 0 96 -16 16 -80 16 -96 0z"/>
<path d="M392 128 c-7 -7 -12 -28 -12 -48 0 -45 15 -60 60 -60 20 0 41 5 48
12 16 16 16 80 0 96 -16 16 -80 16 -96 0z"/>
</g>
</svg>
